<svg width="100" height="100" xmlns="http://www.w3.org/2000/svg">
  <defs>
    <linearGradient id="logoGradient" x1="0%" y1="0%" x2="100%" y2="100%">
      <stop offset="0%" style="stop-color:#00d4ff;stop-opacity:1" />
      <stop offset="100%" style="stop-color:#00ff88;stop-opacity:1" />
    </linearGradient>
  </defs>
  
  <!-- Server Rack Background -->
  <rect x="20" y="15" width="60" height="70" rx="8" fill="#1a1a1a" stroke="url(#logoGradient)" stroke-width="2"/>
  
  <!-- Server Rack Slots -->
  <rect x="25" y="20" width="50" height="8" rx="2" fill="url(#logoGradient)" opacity="0.8"/>
  <rect x="25" y="32" width="50" height="8" rx="2" fill="url(#logoGradient)" opacity="0.6"/>
  <rect x="25" y="44" width="50" height="8" rx="2" fill="url(#logoGradient)" opacity="0.4"/>
  <rect x="25" y="56" width="50" height="8" rx="2" fill="url(#logoGradient)" opacity="0.8"/>
  <rect x="25" y="68" width="50" height="8" rx="2" fill="url(#logoGradient)" opacity="0.6"/>
  
  <!-- AI Brain Icon -->
  <circle cx="50" cy="40" r="12" fill="none" stroke="#00d4ff" stroke-width="2" opacity="0.7"/>
  <circle cx="47" cy="37" r="2" fill="#00ff88"/>
  <circle cx="53" cy="37" r="2" fill="#00ff88"/>
  <path d="M45 43 Q50 47 55 43" stroke="#00ff88" stroke-width="2" fill="none"/>
  
  <!-- Magnifying Glass -->
  <circle cx="65" cy="25" r="8" fill="none" stroke="#00d4ff" stroke-width="3"/>
  <line x1="71" y1="31" x2="78" y2="38" stroke="#00d4ff" stroke-width="3" stroke-linecap="round"/>
  
  <!-- Data Flow Lines -->
  <path d="M30 90 Q50 95 70 90" stroke="url(#logoGradient)" stroke-width="2" fill="none" opacity="0.6"/>
  <circle cx="35" cy="92" r="1.5" fill="#00d4ff"/>
  <circle cx="50" cy="95" r="1.5" fill="#00ff88"/>
  <circle cx="65" cy="92" r="1.5" fill="#00d4ff"/>
</svg>
